<svg width="1372" height="147" viewBox="0 0 1372 147" fill="none" xmlns="http://www.w3.org/2000/svg">
<path d="M107.747 1.44117H126.812L71.9745 90.1765V145.559H54.8377V90.3824L0 1.44117H19.0647L63.4061 74.5294L107.747 1.44117Z" fill="black"/>
<path d="M137.611 1.44117H154.748V92.4412C154.748 101.912 156.533 109.598 160.103 115.5C163.674 121.402 168.458 125.725 174.455 128.471C180.596 131.216 187.522 132.588 195.234 132.588C202.803 132.588 209.586 131.216 215.584 128.471C221.582 125.725 226.366 121.402 229.936 115.5C233.506 109.598 235.291 101.912 235.291 92.4412V1.44117H252.428V92.2353C252.428 101.706 250.857 109.873 247.715 116.735C244.716 123.598 240.503 129.294 235.077 133.824C229.65 138.216 223.509 141.51 216.655 143.706C209.8 145.902 202.588 147 195.02 147C184.737 147 175.241 145.078 166.53 141.235C157.818 137.255 150.821 131.216 145.537 123.118C140.253 115.02 137.611 104.726 137.611 92.2353V1.44117Z" fill="black"/>
<path d="M326.173 15.8529H319.104L269.621 145.559H252.27L307.108 1.44117H337.954L392.578 145.559H375.227L326.173 15.8529Z" fill="black"/>
<path d="M520.648 1.44117V145.559H503.297L423.183 27.7941V145.559H406.046V1.44117H423.397L503.512 119V1.44117H520.648Z" fill="black"/>
<path d="M665.899 44.6765C660.473 34.3824 653.261 26.8333 644.264 22.0294C635.267 17.0882 625.271 14.6176 614.275 14.6176C603.422 14.6176 593.639 17.0196 584.928 21.8235C576.217 26.6274 569.362 33.4216 564.364 42.2059C559.366 50.9902 556.867 61.4216 556.867 73.5C556.867 85.4412 559.366 95.8039 564.364 104.588C569.362 113.373 576.217 120.167 584.928 124.971C593.639 129.775 603.422 132.176 614.275 132.176C622.415 132.176 629.984 130.873 636.981 128.265C643.979 125.52 650.048 121.676 655.189 116.735C660.33 111.657 664.257 105.618 666.97 98.6177V81.9412H615.56V68.5588H684.321V99.4412C681.037 108.637 676.039 116.804 669.327 123.941C662.615 131.078 654.546 136.706 645.121 140.824C635.696 144.941 625.414 147 614.275 147C603.707 147 593.854 145.216 584.714 141.647C575.717 138.078 567.791 133.069 560.937 126.618C554.225 120.029 548.941 112.275 545.085 103.353C541.372 94.2941 539.516 84.3431 539.516 73.5C539.516 62.6569 541.372 52.7745 545.085 43.8529C548.941 34.7941 554.225 27.0392 560.937 20.5882C567.791 14 575.717 8.92157 584.714 5.35293C593.854 1.78431 603.707 0 614.275 0C624.128 0 633.34 1.57843 641.908 4.73529C650.619 7.7549 658.331 12.2157 665.043 18.1176C671.755 23.8824 677.038 30.951 680.894 39.3235L665.899 44.6765Z" fill="black"/>
<path d="M770.548 147C759.98 147 750.126 145.216 740.987 141.647C731.99 138.078 724.064 133.069 717.209 126.618C710.497 120.029 705.214 112.275 701.358 103.353C697.645 94.2941 695.788 84.3431 695.788 73.5C695.788 62.6569 697.645 52.7745 701.358 43.8529C705.214 34.7941 710.497 27.0392 717.209 20.5882C724.064 14 731.99 8.92157 740.987 5.35293C750.126 1.78431 759.98 0 770.548 0C780.972 0 790.683 1.78431 799.68 5.35293C808.82 8.92157 816.745 14 823.457 20.5882C830.169 27.0392 835.382 34.7941 839.095 43.8529C842.95 52.7745 844.878 62.6569 844.878 73.5C844.878 84.3431 842.95 94.2941 839.095 103.353C835.382 112.275 830.169 120.029 823.457 126.618C816.745 133.069 808.82 138.078 799.68 141.647C790.683 145.216 780.972 147 770.548 147ZM770.548 132.588C781.258 132.588 790.897 130.186 799.466 125.382C808.034 120.578 814.818 113.784 819.816 105C824.814 96.0784 827.313 85.5784 827.313 73.5C827.313 61.2843 824.814 50.7843 819.816 42C814.818 33.0784 808.034 26.2843 799.466 21.6176C790.897 16.8137 781.258 14.4118 770.548 14.4118C759.694 14.4118 749.912 16.8137 741.201 21.6176C732.632 26.2843 725.849 33.0784 720.851 42C715.853 50.7843 713.354 61.2843 713.354 73.5C713.354 85.5784 715.853 96.0784 720.851 105C725.849 113.784 732.632 120.578 741.201 125.382C749.912 130.186 759.694 132.588 770.548 132.588Z" fill="black"/>
<path d="M973.886 1.44117V145.559H956.535L876.421 27.7941V145.559H859.284V1.44117H876.635L956.749 119V1.44117H973.886Z" fill="black"/>
<path d="M1114.85 44.6765C1109.43 34.3824 1102.21 26.8333 1093.22 22.0294C1084.22 17.0882 1074.22 14.6176 1063.23 14.6176C1052.37 14.6176 1042.59 17.0196 1033.88 21.8235C1025.17 26.6274 1018.32 33.4216 1013.32 42.2059C1008.32 50.9902 1005.82 61.4216 1005.82 73.5C1005.82 85.4412 1008.32 95.8039 1013.32 104.588C1018.32 113.373 1025.17 120.167 1033.88 124.971C1042.59 129.775 1052.37 132.176 1063.23 132.176C1071.37 132.176 1078.94 130.873 1085.93 128.265C1092.93 125.52 1099 121.676 1104.14 116.735C1109.28 111.657 1113.21 105.618 1115.92 98.6177V81.9412H1064.51V68.5588H1133.27V99.4412C1129.99 108.637 1124.99 116.804 1118.28 123.941C1111.57 131.078 1103.5 136.706 1094.07 140.824C1084.65 144.941 1074.37 147 1063.23 147C1052.66 147 1042.81 145.216 1033.67 141.647C1024.67 138.078 1016.74 133.069 1009.89 126.618C1003.18 120.029 997.894 112.275 994.039 103.353C990.326 94.2941 988.469 84.3431 988.469 73.5C988.469 62.6569 990.326 52.7745 994.039 43.8529C997.894 34.7941 1003.18 27.0392 1009.89 20.5882C1016.74 14 1024.67 8.92157 1033.67 5.35293C1042.81 1.78431 1052.66 0 1063.23 0C1073.08 0 1082.29 1.57843 1090.86 4.73529C1099.57 7.7549 1107.28 12.2157 1114 18.1176C1120.71 23.8824 1125.99 30.951 1129.85 39.3235L1114.85 44.6765Z" fill="black"/>
<path d="M1147.31 1.44117H1245.63V15.8529H1164.45V65.0588H1225.5V79.4706H1164.45V145.559H1147.31V1.44117Z" fill="black"/>
<path d="M1257.18 1.44117H1274.32V92.4412C1274.32 101.912 1276.11 109.598 1279.68 115.5C1283.25 121.402 1288.03 125.725 1294.03 128.471C1300.17 131.216 1307.09 132.588 1314.81 132.588C1322.37 132.588 1329.16 131.216 1335.16 128.471C1341.15 125.725 1345.94 121.402 1349.51 115.5C1353.08 109.598 1354.86 101.912 1354.86 92.4412V1.44117H1372V92.2353C1372 101.706 1370.43 109.873 1367.29 116.735C1364.29 123.598 1360.08 129.294 1354.65 133.824C1349.22 138.216 1343.08 141.51 1336.23 143.706C1329.37 145.902 1322.16 147 1314.59 147C1304.31 147 1294.81 145.078 1286.1 141.235C1277.39 137.255 1270.39 131.216 1265.11 123.118C1259.83 115.02 1257.18 104.726 1257.18 92.2353V1.44117Z" fill="black"/>
</svg>
