<svg width="196" height="21" viewBox="0 0 196 21" fill="none" xmlns="http://www.w3.org/2000/svg">
<path d="M15.3925 0.205881H18.116L10.2821 12.8824V20.7941H7.83396V12.9118L0 0.205881H2.72352L9.05801 10.6471L15.3925 0.205881Z" fill="black"/>
<path d="M19.6588 0.205881H22.1069V13.2059C22.1069 14.5588 22.3619 15.6569 22.8719 16.5C23.3819 17.3431 24.0654 17.9608 24.9222 18.3529C25.7994 18.7451 26.7889 18.9412 27.8905 18.9412C28.9718 18.9412 29.9408 18.7451 30.7977 18.3529C31.6545 17.9608 32.3379 17.3431 32.848 16.5C33.358 15.6569 33.613 14.5588 33.613 13.2059V0.205881H36.0611V13.1765C36.0611 14.5294 35.8367 15.6961 35.3879 16.6765C34.9595 17.6569 34.3576 18.4706 33.5824 19.1176C32.8072 19.7451 31.9299 20.2157 30.9507 20.5294C29.9714 20.8431 28.9412 21 27.8599 21C26.3911 21 25.0344 20.7255 23.79 20.1765C22.5455 19.6078 21.5458 18.7451 20.791 17.5882C20.0362 16.4314 19.6588 14.9608 19.6588 13.1765V0.205881Z" fill="black"/>
<path d="M46.5961 2.2647H45.5863L38.5173 20.7941H36.0386L43.8726 0.205881H48.2792L56.0826 20.7941H53.6038L46.5961 2.2647Z" fill="black"/>
<path d="M74.3783 0.205881V20.7941H71.8996L60.4547 3.97059V20.7941H58.0066V0.205881H60.4853L71.9302 17V0.205881H74.3783Z" fill="black"/>
<path d="M95.1285 6.38235C94.3532 4.91177 93.323 3.83333 92.0377 3.14706C90.7525 2.44118 89.3244 2.08823 87.7535 2.08823C86.2031 2.08823 84.8056 2.43137 83.5612 3.11765C82.3167 3.80392 81.3375 4.77451 80.6234 6.02941C79.9094 7.28431 79.5524 8.77451 79.5524 10.5C79.5524 12.2059 79.9094 13.6863 80.6234 14.9412C81.3375 16.1961 82.3167 17.1667 83.5612 17.8529C84.8056 18.5392 86.2031 18.8824 87.7535 18.8824C88.9164 18.8824 89.9977 18.6961 90.9973 18.3235C91.9969 17.9314 92.864 17.3824 93.5984 16.6765C94.3329 15.951 94.8939 15.0882 95.2815 14.0882V11.7059H87.9372V9.79412H97.7602V14.2059C97.291 15.5196 96.577 16.6863 95.6181 17.7059C94.6593 18.7255 93.5066 19.5294 92.1602 20.1176C90.8137 20.7059 89.3448 21 87.7535 21C86.2439 21 84.8362 20.7451 83.5306 20.2353C82.2453 19.7255 81.113 19.0098 80.1338 18.0882C79.175 17.1471 78.4201 16.0392 77.8693 14.7647C77.3389 13.4706 77.0737 12.049 77.0737 10.5C77.0737 8.95098 77.3389 7.53922 77.8693 6.26471C78.4201 4.97059 79.175 3.86275 80.1338 2.94118C81.113 2 82.2453 1.27451 83.5306 0.764705C84.8362 0.254902 86.2439 0 87.7535 0C89.1612 0 90.4771 0.22549 91.7011 0.676471C92.9456 1.10784 94.0472 1.7451 95.0061 2.58824C95.9649 3.41176 96.7197 4.42157 97.2706 5.61765L95.1285 6.38235Z" fill="black"/>
<path d="M110.078 21C108.569 21 107.161 20.7451 105.855 20.2353C104.57 19.7255 103.438 19.0098 102.458 18.0882C101.5 17.1471 100.745 16.0392 100.194 14.7647C99.6636 13.4706 99.3983 12.049 99.3983 10.5C99.3983 8.95098 99.6636 7.53922 100.194 6.26471C100.745 4.97059 101.5 3.86275 102.458 2.94118C103.438 2 104.57 1.27451 105.855 0.764705C107.161 0.254902 108.569 0 110.078 0C111.567 0 112.955 0.254902 114.24 0.764705C115.546 1.27451 116.678 2 117.637 2.94118C118.596 3.86275 119.34 4.97059 119.871 6.26471C120.421 7.53922 120.697 8.95098 120.697 10.5C120.697 12.049 120.421 13.4706 119.871 14.7647C119.34 16.0392 118.596 17.1471 117.637 18.0882C116.678 19.0098 115.546 19.7255 114.24 20.2353C112.955 20.7451 111.567 21 110.078 21ZM110.078 18.9412C111.608 18.9412 112.985 18.598 114.209 17.9118C115.433 17.2255 116.403 16.2549 117.117 15C117.831 13.7255 118.188 12.2255 118.188 10.5C118.188 8.7549 117.831 7.2549 117.117 6C116.403 4.72549 115.433 3.7549 114.209 3.08823C112.985 2.40196 111.608 2.05882 110.078 2.05882C108.528 2.05882 107.13 2.40196 105.886 3.08823C104.662 3.7549 103.693 4.72549 102.979 6C102.265 7.2549 101.908 8.7549 101.908 10.5C101.908 12.2255 102.265 13.7255 102.979 15C103.693 16.2549 104.662 17.2255 105.886 17.9118C107.13 18.598 108.528 18.9412 110.078 18.9412Z" fill="black"/>
<path d="M139.127 0.205881V20.7941H136.648L125.203 3.97059V20.7941H122.755V0.205881H125.234L136.678 17V0.205881H139.127Z" fill="black"/>
<path d="M159.265 6.38235C158.489 4.91177 157.459 3.83333 156.174 3.14706C154.889 2.44118 153.461 2.08823 151.89 2.08823C150.339 2.08823 148.942 2.43137 147.697 3.11765C146.453 3.80392 145.474 4.77451 144.76 6.02941C144.046 7.28431 143.689 8.77451 143.689 10.5C143.689 12.2059 144.046 13.6863 144.76 14.9412C145.474 16.1961 146.453 17.1667 147.697 17.8529C148.942 18.5392 150.339 18.8824 151.89 18.8824C153.053 18.8824 154.134 18.6961 155.134 18.3235C156.133 17.9314 157 17.3824 157.735 16.6765C158.469 15.951 159.03 15.0882 159.418 14.0882V11.7059H152.073V9.79412H161.896V14.2059C161.427 15.5196 160.713 16.6863 159.754 17.7059C158.795 18.7255 157.643 19.5294 156.296 20.1176C154.95 20.7059 153.481 21 151.89 21C150.38 21 148.972 20.7451 147.667 20.2353C146.382 19.7255 145.249 19.0098 144.27 18.0882C143.311 17.1471 142.556 16.0392 142.006 14.7647C141.475 13.4706 141.21 12.049 141.21 10.5C141.21 8.95098 141.475 7.53922 142.006 6.26471C142.556 4.97059 143.311 3.86275 144.27 2.94118C145.249 2 146.382 1.27451 147.667 0.764705C148.972 0.254902 150.38 0 151.89 0C153.297 0 154.613 0.22549 155.837 0.676471C157.082 1.10784 158.183 1.7451 159.142 2.58824C160.101 3.41176 160.856 4.42157 161.407 5.61765L159.265 6.38235Z" fill="black"/>
<path d="M163.902 0.205881H177.948V2.2647H166.35V9.29412H175.071V11.3529H166.35V20.7941H163.902V0.205881Z" fill="black"/>
<path d="M179.598 0.205881H182.046V13.2059C182.046 14.5588 182.301 15.6569 182.811 16.5C183.321 17.3431 184.004 17.9608 184.861 18.3529C185.738 18.7451 186.728 18.9412 187.829 18.9412C188.911 18.9412 189.88 18.7451 190.737 18.3529C191.593 17.9608 192.277 17.3431 192.787 16.5C193.297 15.6569 193.552 14.5588 193.552 13.2059V0.205881H196V13.1765C196 14.5294 195.776 15.6961 195.327 16.6765C194.898 17.6569 194.297 18.4706 193.521 19.1176C192.746 19.7451 191.869 20.2157 190.89 20.5294C189.91 20.8431 188.88 21 187.799 21C186.33 21 184.973 20.7255 183.729 20.1765C182.484 19.6078 181.485 18.7451 180.73 17.5882C179.975 16.4314 179.598 14.9608 179.598 13.1765V0.205881Z" fill="black"/>
</svg>
